<?xml version="1.0" standalone="no"?>
<!DOCTYPE svg PUBLIC "-//W3C//DTD SVG 20010904//EN"
 "http://www.w3.org/TR/2001/REC-SVG-20010904/DTD/svg10.dtd">
<svg version="1.0" xmlns="http://www.w3.org/2000/svg"
 width="512.000000pt" height="512.000000pt" viewBox="0 0 512.000000 512.000000"
 preserveAspectRatio="xMidYMid meet">
<metadata>
Created by potrace 1.14, written by Peter Selinger 2001-2017
</metadata>
<g transform="translate(0.000000,512.000000) scale(0.100000,-0.100000)"
fill="#000000" stroke="none">
<path d="M1699 4310 c-46 -13 -78 -41 -99 -84 -20 -42 -20 -57 -20 -793 0
-643 2 -763 16 -834 54 -286 243 -526 515 -653 122 -57 199 -76 339 -83 180
-9 343 30 488 116 29 17 57 31 62 31 5 0 20 -19 32 -42 33 -63 33 -212 0 -283
-29 -63 -64 -100 -122 -130 -83 -42 -119 -47 -380 -55 -146 -4 -275 -13 -302
-20 -46 -12 -49 -11 -95 19 -61 41 -114 54 -186 48 -197 -18 -307 -251 -196
-417 102 -151 306 -163 437 -26 77 81 114 86 512 75 169 -5 215 4 339 63 212
101 341 323 341 586 0 153 -31 266 -101 371 l-40 59 32 53 c36 63 81 172 100
249 9 35 14 109 14 205 0 125 -4 163 -23 228 -95 331 -339 568 -668 648 -243
59 -519 4 -730 -146 l-64 -46 0 371 c0 397 -2 412 -51 456 -36 32 -104 48
-150 34z m958 -1000 c86 -28 160 -75 230 -145 113 -113 163 -236 163 -400 0
-163 -50 -285 -164 -400 -89 -90 -182 -138 -310 -162 -80 -15 -96 -15 -183 0
-129 21 -219 66 -305 152 -221 220 -228 559 -18 798 42 48 150 119 225 147
100 38 262 42 362 10z"/>
<path d="M2394 2981 c-150 -68 -190 -266 -78 -385 97 -103 264 -102 355 1 140
160 32 404 -177 403 -36 0 -75 -8 -100 -19z"/>
</g>
</svg>
