<svg width="38" height="24" viewBox="45 0 38 24" fill="none" xmlns="http://www.w3.org/2000/svg">
<path d="M80.6 0H47.4C46.0745 0 45 1.07452 45 2.4V21.6C45 22.9255 46.0745 24 47.4 24H80.6C81.9255 24 83 22.9255 83 21.6V2.4C83 1.07452 81.9255 0 80.6 0Z" fill="#004481"/>
<path d="M71.6251 8.22069L69.0441 13.1343C68.9891 13.2394 68.8281 13.2394 68.7731 13.1343L66.1911 8.22069C66.1661 8.17065 66.1161 8.14062 66.0611 8.14062H64.8101C64.7251 8.14062 64.6701 8.2307 64.7101 8.30575L68.7781 15.9214C68.8331 16.0264 68.9841 16.0264 69.0441 15.9214L73.1121 8.30575C73.1521 8.2307 73.0971 8.14062 73.0111 8.14062H71.7611C71.7011 8.14062 71.6501 8.17065 71.6251 8.22069Z" fill="white"/>
<path d="M73.0911 14.7794L75.6731 9.86584C75.7281 9.76077 75.8881 9.76077 75.9431 9.86584L78.5251 14.7794C78.5501 14.8295 78.6001 14.8595 78.6551 14.8595H79.9061C79.9911 14.8595 80.0461 14.7694 80.0061 14.6944L75.9381 7.07881C75.8831 6.97373 75.7331 6.97373 75.6731 7.07881L71.6051 14.6944C71.5651 14.7694 71.6201 14.8595 71.7051 14.8595H72.9561C73.0111 14.8545 73.0661 14.8245 73.0911 14.7794Z" fill="white"/>
<path d="M55.4442 11.7634C55.9842 11.4932 56.3192 10.9077 56.3192 10.1922C56.3192 8.96635 55.3642 8.13574 54.0179 8.13574H50.1501C50.0651 8.13574 50 8.20079 50 8.28585V15.8464C50 15.9314 50.0651 15.9965 50.1501 15.9965H53.8528C55.7042 15.9965 56.6802 15.2009 56.6802 13.6397C56.6802 12.1186 55.4442 11.7634 55.4442 11.7634ZM51.4511 9.27657H53.7477C54.5934 9.27657 55.0237 9.63684 55.0237 10.3073C55.0237 10.9778 54.5934 11.3381 53.7477 11.3381H51.4511C51.371 11.3381 51.301 11.273 51.301 11.1879V9.42668C51.301 9.34162 51.366 9.27657 51.4511 9.27657ZM53.7778 14.8556H51.4511C51.366 14.8556 51.301 14.7906 51.301 14.7055V12.619C51.301 12.5389 51.366 12.4689 51.4511 12.4689H53.7778C54.8886 12.4689 55.3842 12.7841 55.3842 13.6598C55.3792 14.5454 54.8986 14.8556 53.7778 14.8556Z" fill="white"/>
<path d="M63.3845 11.7634C63.9255 11.4932 64.2605 10.9077 64.2605 10.1922C64.2605 8.96635 63.3045 8.13574 61.9585 8.13574H58.0855C58.0005 8.13574 57.9355 8.20079 57.9355 8.28585V15.8464C57.9355 15.9314 58.0005 15.9965 58.0855 15.9965H61.7885C63.6405 15.9965 64.6155 15.2009 64.6155 13.6397C64.6205 12.1186 63.3845 11.7634 63.3845 11.7634ZM59.3915 9.27657H61.6885C62.5345 9.27657 62.9645 9.63684 62.9645 10.3073C62.9645 10.9778 62.5345 11.3381 61.6885 11.3381H59.3915C59.3065 11.3381 59.2415 11.273 59.2415 11.1879V9.42668C59.2415 9.34162 59.3065 9.27657 59.3915 9.27657ZM61.7135 14.8556H59.3865C59.3065 14.8556 59.2365 14.7906 59.2365 14.7055V12.619C59.2365 12.5389 59.3015 12.4689 59.3865 12.4689H61.7135C62.8245 12.4689 63.3195 12.7841 63.3195 13.6598C63.3195 14.5454 62.8345 14.8556 61.7135 14.8556Z" fill="white"/>
</svg>
