<svg width="38" height="24" viewBox="0 0 38 24" fill="none" xmlns="http://www.w3.org/2000/svg">
<path d="M35.2896 0H3.12414C1.91292 0 0.93103 1.07452 0.93103 2.4V21.6C0.93103 22.9255 1.91292 24 3.12414 24H35.2896C36.5009 24 37.4828 22.9255 37.4828 21.6V2.4C37.4828 1.07452 36.5009 0 35.2896 0Z" fill="#012D74"/>
<path fill-rule="evenodd" clip-rule="evenodd" d="M11.7699 14.2667L12.1542 12.4028H12.684C13.4347 12.4028 14.0579 12.6296 14.0413 13.3821C14.0234 14.2312 13.2227 14.5768 12.3476 14.5768C12.2104 14.5768 12.08 14.5768 11.9572 14.5726C11.7144 14.5492 11.7699 14.2667 11.7699 14.2667ZM15.7405 13.4237C15.7405 12.3044 15.0138 11.8158 14.4247 11.7685C15.168 11.6338 16.1501 11.0396 16.1501 9.94612C16.1501 8.7783 15.0718 8.1543 13.4445 8.1543C12.7053 8.1543 11.9857 8.22252 11.344 8.33487L10.1779 13.9582C10.1779 13.9582 9.77473 15.4114 10.9208 15.7146C11.2425 15.7995 11.4616 15.8311 11.8182 15.8527C14.8608 16.0356 15.7405 14.5499 15.7405 13.4237ZM12.7658 9.45998C12.8898 9.43888 13.1848 9.41831 13.4657 9.41831C14.0802 9.41831 14.5129 9.65233 14.5005 10.1925C14.4852 10.8472 13.8737 11.2189 12.9909 11.2189H12.6478C12.3986 11.2189 12.4716 10.9088 12.4716 10.9088L12.7658 9.45998Z" fill="white"/>
<path fill-rule="evenodd" clip-rule="evenodd" d="M23.1802 15.8723C23.4273 15.8723 23.8935 15.7672 24.0526 14.9962C24.1789 14.382 24.3913 13.3398 24.3913 13.3398C24.557 13.3517 24.7867 13.3846 25.0536 13.3846C27.6604 13.3846 28.567 11.5636 28.567 10.3259C28.567 8.97526 27.7029 8.2004 25.8181 8.19231C25.046 8.18528 24.3793 8.21675 23.7458 8.37587L22.2142 15.8723H23.1802ZM25.2757 9.51428C25.4101 9.49283 25.6421 9.477 25.9514 9.477C26.5569 9.477 27.0598 9.67164 27.0598 10.463C27.0598 11.2674 26.497 12.0444 25.4013 12.0535C25.329 12.0535 25.2633 12.0516 25.2028 12.0488C24.7126 12.0488 24.85 11.6045 24.85 11.6045L25.2757 9.51428Z" fill="white"/>
<path fill-rule="evenodd" clip-rule="evenodd" d="M18.3912 12.5604C18.3912 11.3402 19.1197 9.51848 20.7883 9.51848C21.2238 9.51848 22.0071 9.64138 22.4568 10.0781C22.4568 10.0781 22.6255 9.45747 22.6738 9.19919C22.7212 8.94688 22.6344 8.52596 21.9195 8.27523C21.4558 8.11259 21.0938 8.03418 20.5816 8.03418C17.9713 8.03418 16.619 10.3661 16.619 12.6604C16.619 15.1132 18.1281 15.9409 19.6746 15.9409C20.2297 15.9409 20.596 15.8766 20.9432 15.7351C21.3706 15.5726 21.4422 15.1545 21.4422 15.1545L21.7002 13.8942C21.0421 14.4188 20.5543 14.5002 20.1078 14.5002C19.0233 14.5002 18.3912 13.7437 18.3912 12.5604Z" fill="white"/>
<path fill-rule="evenodd" clip-rule="evenodd" d="M9.36748 12.6762C8.73842 13.7686 7.02232 15.0138 6.53609 15.2005C5.59041 15.6308 4.95011 14.8329 4.89547 14.7492C4.71902 14.5022 4.67616 14.4499 4.59081 14.2697C4.57418 14.2996 6.40624 13.373 7.06262 12.1742C7.77346 11.1446 7.83542 9.1249 7.05906 8.74512C7.29381 8.87365 7.84711 9.21897 8.34632 9.70266C8.84433 10.1618 9.27482 10.7638 9.26559 10.756C9.31814 10.8336 9.94207 11.6779 9.36748 12.6762Z" fill="#FF7800"/>
<path fill-rule="evenodd" clip-rule="evenodd" d="M7.36631 11.5804C7.77075 10.5089 7.70505 9.06029 7.05982 8.74468C6.46915 8.44332 5.79751 9.30134 5.76617 9.34583C5.76617 9.34583 5.54448 9.63998 5.37598 10.0518C5.49157 10.1204 5.71298 10.2397 5.71298 10.2397C6.16732 10.4767 6.78285 10.8926 7.36631 11.5804Z" fill="white"/>
<path fill-rule="evenodd" clip-rule="evenodd" d="M33.2365 10.756C33.2892 10.8336 33.913 11.6779 33.3384 12.6762C32.7096 13.7686 30.9933 15.0138 30.507 15.2005C29.5614 15.6308 28.9212 14.8329 28.8664 14.7492C28.6901 14.5022 28.6472 14.4499 28.5618 14.2697C28.5451 14.2996 30.3774 13.373 31.0336 12.1742C31.7445 11.1446 31.8064 9.1249 31.03 8.74512C31.2649 8.87365 31.8181 9.21897 32.3173 9.70266C32.8153 10.1618 33.246 10.7638 33.2365 10.756Z" fill="#FF7800"/>
<path fill-rule="evenodd" clip-rule="evenodd" d="M31.3356 11.5804C31.7401 10.5089 31.6744 9.06029 31.0291 8.74468C30.4384 8.44332 29.7668 9.30134 29.7355 9.34583C29.7355 9.34583 29.5137 9.63998 29.3452 10.0518C29.4609 10.1204 29.6822 10.2397 29.6822 10.2397C30.1366 10.4767 30.7522 10.8926 31.3356 11.5804Z" fill="white"/>
</svg>
