<svg width="38" height="24" viewBox="0 0 38 24" fill="none" xmlns="http://www.w3.org/2000/svg">
<path d="M35.2896 0H3.12413C1.91291 0 0.93103 1.07452 0.93103 2.4V21.6C0.93103 22.9255 1.91291 24 3.12413 24H35.2896C36.5009 24 37.4827 22.9255 37.4827 21.6V2.4C37.4827 1.07452 36.5009 0 35.2896 0Z" fill="#00A24F"/>
<path d="M18.8705 10.8899C17.9329 10.8899 17.2741 11.6294 17.2686 12.822C17.2686 13.9133 18.0645 14.5872 18.876 14.5872C19.3612 14.5872 19.6609 14.5037 19.8355 14.3486V13.7463C19.5842 13.8775 19.2899 13.9252 19.0341 13.9252C18.5324 13.9252 18.1294 13.6271 18.0645 13.15L18.0591 13.1083H18.6421C19.1922 13.1083 19.5787 13.0546 19.8245 12.9234C20.0694 12.7922 20.1727 12.5895 20.1727 12.2674C20.1727 11.4147 19.5467 10.8899 18.8705 10.8899ZM19.2525 12.4583C19.0999 12.5179 18.8595 12.5418 18.462 12.5418H18.0536V12.5L18.0591 12.3808C18.0746 11.9514 18.3688 11.5697 18.7947 11.5697C18.9902 11.5697 19.1538 11.6174 19.2735 11.7129C19.3941 11.8083 19.459 11.9633 19.459 12.1482C19.4645 12.2913 19.4051 12.3986 19.2525 12.4583ZM20.5766 12.2674V14.5275H21.3441V12.4344C21.3441 12.1541 21.3935 11.9514 21.5022 11.8142C21.6064 11.6771 21.7645 11.6234 21.9546 11.6234C22.0313 11.6234 22.1017 11.6294 22.162 11.6413V10.9734C22.0642 10.9197 21.9381 10.884 21.7754 10.884C20.9137 10.8899 20.5766 11.5578 20.5766 12.2674ZM11.2522 14.5275V9.97754H10.4901V14.5275H11.2522ZM13.3183 10.8899C12.293 10.8899 11.8517 11.6532 11.8462 12.4046V14.5275H12.6092V12.4642C12.6092 12.2019 12.675 11.9872 12.7837 11.8381C12.898 11.689 13.0615 11.6115 13.247 11.6115C13.4654 11.6115 13.6445 11.683 13.7697 11.8321C13.8903 11.9872 13.9552 12.2197 13.9552 12.5298V14.5275H14.7182V12.4523C14.7182 11.4445 14.0859 10.8899 13.3183 10.8899ZM16.0642 9.97754H15.3067V13.2633C15.3122 14.0982 15.6942 14.5872 16.5221 14.5931C16.8766 14.5931 17.0831 14.4679 17.1708 14.2652V13.7463C17.0338 13.8119 16.8492 13.8418 16.6198 13.8418C16.4453 13.8418 16.3037 13.7941 16.2059 13.6808C16.1081 13.5674 16.0588 13.3945 16.0588 13.15V11.6115H16.724C17.0502 11.6115 17.1864 11.3849 17.1864 11.2179V10.884H16.0642V9.97754ZM30.5323 10.8899C29.5071 10.8899 29.0657 11.6532 29.0602 12.4046L29.0657 14.5275H29.8232V12.4642C29.8232 12.1959 29.889 11.9872 29.9978 11.8381C30.112 11.689 30.2756 11.6115 30.4611 11.6115C30.6795 11.6115 30.8586 11.683 30.9847 11.8381C31.1098 11.9931 31.1692 12.2197 31.1692 12.5298V14.5275H31.9268V12.4523C31.9323 11.4445 31.3054 10.8899 30.5323 10.8899ZM24.1833 10.8899C23.7529 10.8899 23.4861 11.1702 23.328 11.4266L23.2677 11.522V9.97754H22.5111V12.7982C22.5111 13.9968 23.1699 14.5931 24.0252 14.5931C25.0011 14.5931 25.617 13.7523 25.617 12.6789C25.617 11.6234 24.9957 10.8899 24.1833 10.8899ZM24.1129 13.8835C23.8616 13.8835 23.6387 13.806 23.4916 13.6032C23.3444 13.4064 23.2732 13.0904 23.2732 12.667C23.2732 12.0885 23.5948 11.6174 24.0307 11.6115C24.2875 11.6115 24.494 11.689 24.6356 11.8858C24.7773 12.0826 24.8485 12.3808 24.8485 12.828C24.8431 13.4303 24.5433 13.8835 24.1129 13.8835ZM27.1805 10.8899C26.7172 10.8899 26.412 11.0271 26.2 11.206V11.7904C26.4175 11.6771 26.6843 11.5876 27.0553 11.5876C27.3057 11.5876 27.5241 11.6294 27.6493 11.7367C27.78 11.85 27.8348 12.0289 27.8348 12.2913V12.3748H27.5077C26.2869 12.3808 25.8839 12.8519 25.8839 13.478C25.8839 14.122 26.4066 14.5931 27.186 14.5931H27.3551C28.0797 14.5931 28.5814 14.0803 28.5814 13.3289V12.4941C28.5869 11.2239 27.9161 10.8959 27.1805 10.8899ZM27.8458 13.3349C27.8458 13.5257 27.8019 13.6748 27.7041 13.7821C27.6055 13.8835 27.4638 13.9312 27.2783 13.9312C27.0937 13.9312 26.9411 13.8895 26.8315 13.806C26.7227 13.7225 26.6688 13.5973 26.6688 13.4422C26.6688 13.2872 26.7172 13.15 26.8534 13.0665C26.9841 12.983 27.197 12.9473 27.5132 12.9473H27.8458V13.3349Z" fill="white"/>
<path d="M34.1063 12.6431L34.0899 12.6193L34.1063 12.5954C34.4389 12.1363 35.1636 11.2418 35.4304 10.9734H35.011C34.7442 10.9734 34.5641 11.0032 34.3732 11.2C33.9921 11.5936 33.6759 12.0587 33.3543 12.5119L33.2949 12.6014L33.2994 9.97754H32.5319V14.5216H33.2994V12.6789L33.3597 12.7684C33.7253 13.2991 34.0954 13.8358 34.5203 14.3129C34.6564 14.456 34.8639 14.5514 35.0439 14.5514C35.2559 14.5514 35.3756 14.4918 35.4578 14.3844C35.2394 14.1041 34.3677 12.989 34.1063 12.6431Z" fill="white"/>
<path fill-rule="evenodd" clip-rule="evenodd" d="M3.54721 9C3.11133 9 2.75769 9.39358 2.75769 9.87064V15.5H7.90691C8.34279 15.5 8.70283 15.1124 8.70283 14.6294V9H3.54721ZM7.31295 13.6931L4.14666 14.3193V10.8248L7.31295 10.1986V13.6931Z" fill="#0060A9"/>
</svg>
