<svg width="40" height="24" viewBox="0 0 40 24" fill="none" xmlns="http://www.w3.org/2000/svg">
<g clip-path="url(#clip0_461_2245)">
<path d="M2 0H38C39.1 0 40 0.9 40 2V22C40 23.1 39.1 24 38 24H2C0.9 24 0 23.1 0 22V2C0 0.9 0.9 0 2 0Z" fill="#44BCC6"/>
<path d="M21.9265 8.44238C22.4689 8.44238 22.9087 8.00385 22.9087 7.46289C22.9087 6.92193 22.4689 6.4834 21.9265 6.4834C21.3841 6.4834 20.9443 6.92193 20.9443 7.46289C20.9443 8.00385 21.3841 8.44238 21.9265 8.44238Z" fill="#FD71C8"/>
<path d="M13.7883 8.58204C13.2271 8.58204 12.8062 8.72196 12.3852 8.86189C11.824 9.14175 11.824 8.86189 11.6837 8.86189C11.6837 8.86189 11.6837 8.72196 11.4031 8.72196H10.5612C10.5612 8.72196 10 8.72196 10 9.14175C10 9.14175 10 10.4011 10 11.2407V17.6773C10 18.237 10.4209 18.6568 10.8419 18.6568C11.4031 18.6568 11.824 18.237 11.824 17.6773V16.1381C11.824 15.8583 12.1046 15.7183 12.2449 15.8583C12.6659 15.9982 13.0868 16.1381 13.5077 16.1381C15.0511 16.1381 16.8751 14.8788 16.8751 12.2202C16.8751 10.1212 15.6123 8.58204 13.7883 8.58204ZM13.3674 14.459C12.6659 14.459 12.1046 14.0392 11.9643 13.3396C11.9643 13.1996 11.9643 13.0597 11.9643 12.9198V11.8004C11.9643 11.6604 11.9643 11.5205 11.9643 11.3806C12.1046 10.6809 12.8062 10.1212 13.3674 10.1212C14.4899 10.1212 14.9108 11.1007 14.9108 12.2202C15.0511 13.6194 14.4899 14.459 13.3674 14.459ZM27.6789 8.58204C27.2579 8.58204 26.837 8.72196 26.4161 8.86189C26.2758 9.00182 25.8549 8.86189 25.7146 8.86189C25.5742 8.86189 25.5742 8.72196 25.4339 8.72196H24.3115C24.1712 8.72196 23.8905 8.86189 23.8905 9.14175C23.8905 9.70146 23.8905 10.1212 23.8905 10.8209V15.0187C23.8905 15.2986 23.8905 15.4385 23.8905 15.4385C24.0308 15.8583 24.4518 15.9982 24.8727 15.9982C25.4339 15.9982 25.7146 15.5784 25.7146 15.0187V11.6604C25.7146 11.5205 25.7146 11.3806 25.7146 11.2407C25.8549 10.8209 26.2758 10.2612 26.9773 10.2612C27.6789 10.2612 28.0998 10.8209 28.0998 11.8004V15.0187C28.0998 15.8583 28.661 15.9982 29.082 15.9982C29.6432 15.9982 29.9238 15.5784 29.9238 15.0187V11.8004C30.3447 9.4216 28.9416 8.58204 27.6789 8.58204ZM21.9262 8.72196C21.5053 8.72196 20.9441 9.00182 20.9441 9.56153V15.0187C20.9441 15.8583 21.5053 15.9982 21.9262 15.9982C22.4875 15.9982 22.9084 15.5784 22.9084 15.0187V9.70146C22.7681 9.14174 22.3471 8.72196 21.9262 8.72196ZM18.6991 5.64355C18.2782 5.64355 17.8573 6.06334 17.717 6.48312V15.0187C17.717 15.4385 18.1379 15.8583 18.6991 15.8583C19.2604 15.8583 19.6813 15.4385 19.6813 14.8788V6.48312C19.6813 6.06334 19.2604 5.64355 18.6991 5.64355Z" fill="white"/>
</g>
<defs>
<clipPath id="clip0_461_2245">
<rect width="40" height="24" fill="white"/>
</clipPath>
</defs>
</svg>
