<svg width="85" height="24" viewBox="0 0 85 24" fill="none" xmlns="http://www.w3.org/2000/svg">
<path d="M37.6 0H2.4C1.07452 0 0 1.07452 0 2.4V21.6C0 22.9255 1.07452 24 2.4 24H37.6C38.9255 24 40 22.9255 40 21.6V2.4C40 1.07452 38.9255 0 37.6 0Z" fill="#012D74"/>
<path fill-rule="evenodd" clip-rule="evenodd" d="M11.8614 14.2667L12.2819 12.4028H12.8617C13.6833 12.4028 14.3652 12.6296 14.3471 13.3821C14.3275 14.2312 13.4513 14.5768 12.4936 14.5768C12.3435 14.5768 12.2007 14.5768 12.0664 14.5726C11.8007 14.5492 11.8614 14.2667 11.8614 14.2667ZM16.2066 13.4237C16.2066 12.3044 15.4113 11.8158 14.7666 11.7685C15.5801 11.6338 16.6548 11.0396 16.6548 9.94612C16.6548 8.7783 15.4748 8.1543 13.694 8.1543C12.885 8.1543 12.0975 8.22252 11.3953 8.33487L10.1192 13.9582C10.1192 13.9582 9.678 15.4114 10.9322 15.7146C11.2842 15.7995 11.524 15.8311 11.9142 15.8527C15.2439 16.0356 16.2066 14.5499 16.2066 13.4237ZM12.9512 9.45998C13.087 9.43888 13.4098 9.41831 13.7172 9.41831C14.3897 9.41831 14.8632 9.65233 14.8496 10.1925C14.8328 10.8472 14.1637 11.2189 13.1976 11.2189H12.8221C12.5494 11.2189 12.6293 10.9088 12.6293 10.9088L12.9512 9.45998Z" fill="white"/>
<path fill-rule="evenodd" clip-rule="evenodd" d="M24.3481 15.8723C24.6185 15.8723 25.1287 15.7672 25.3028 14.9962C25.441 14.382 25.6734 13.3398 25.6734 13.3398C25.8548 13.3517 26.1061 13.3846 26.3982 13.3846C29.251 13.3846 30.2431 11.5636 30.2431 10.3259C30.2431 8.97526 29.2975 8.2004 27.2349 8.19231C26.3899 8.18528 25.6603 8.21675 24.9671 8.37587L23.291 15.8723H24.3481ZM26.6413 9.51428C26.7884 9.49283 27.0423 9.477 27.3807 9.477C28.0433 9.477 28.5937 9.67164 28.5937 10.463C28.5937 11.2674 27.9778 12.0444 26.7787 12.0535C26.6996 12.0535 26.6277 12.0516 26.5615 12.0488C26.0251 12.0488 26.1754 11.6045 26.1754 11.6045L26.6413 9.51428Z" fill="white"/>
<path fill-rule="evenodd" clip-rule="evenodd" d="M19.1074 12.5604C19.1074 11.3402 19.9046 9.51848 21.7306 9.51848C22.2072 9.51848 23.0644 9.64138 23.5565 10.0781C23.5565 10.0781 23.7411 9.45747 23.794 9.19919C23.8459 8.94688 23.7509 8.52596 22.9685 8.27523C22.4611 8.11259 22.0649 8.03418 21.5044 8.03418C18.6478 8.03418 17.168 10.3661 17.168 12.6604C17.168 15.1132 18.8194 15.9409 20.5118 15.9409C21.1193 15.9409 21.5202 15.8766 21.9001 15.7351C22.3678 15.5726 22.4462 15.1545 22.4462 15.1545L22.7285 13.8942C22.0084 14.4188 21.4745 14.5002 20.9859 14.5002C19.7991 14.5002 19.1074 13.7437 19.1074 12.5604Z" fill="white"/>
<path fill-rule="evenodd" clip-rule="evenodd" d="M9.2323 12.6762C8.5439 13.7686 6.66591 15.0138 6.13381 15.2005C5.09891 15.6308 4.39821 14.8329 4.33841 14.7492C4.14531 14.5022 4.09841 14.4499 4.00501 14.2697C3.98681 14.2996 5.9917 13.373 6.71 12.1742C7.4879 11.1446 7.55571 9.1249 6.70611 8.74512C6.96301 8.87365 7.5685 9.21897 8.1148 9.70266C8.6598 10.1618 9.1309 10.7638 9.1208 10.756C9.1783 10.8336 9.8611 11.6779 9.2323 12.6762Z" fill="#FF7800"/>
<path fill-rule="evenodd" clip-rule="evenodd" d="M7.04236 11.5804C7.48496 10.5089 7.41306 9.06029 6.70696 8.74468C6.06056 8.44332 5.32556 9.30134 5.29126 9.34583C5.29126 9.34583 5.04866 9.63998 4.86426 10.0518C4.99076 10.1204 5.23306 10.2397 5.23306 10.2397C5.73026 10.4767 6.40386 10.8926 7.04236 11.5804Z" fill="white"/>
<path fill-rule="evenodd" clip-rule="evenodd" d="M35.3532 10.756C35.4108 10.8336 36.0935 11.6779 35.4647 12.6762C34.7765 13.7686 32.8983 15.0138 32.3662 15.2005C31.3313 15.6308 30.6307 14.8329 30.5708 14.7492C30.3778 14.5022 30.3309 14.4499 30.2374 14.2697C30.2192 14.2996 32.2243 13.373 32.9424 12.1742C33.7204 11.1446 33.7881 9.1249 32.9385 8.74512C33.1955 8.87365 33.8009 9.21897 34.3472 9.70266C34.8922 10.1618 35.3635 10.7638 35.3532 10.756Z" fill="#FF7800"/>
<path fill-rule="evenodd" clip-rule="evenodd" d="M33.2729 11.5804C33.7155 10.5089 33.6436 9.06029 32.9375 8.74468C32.291 8.44332 31.5561 9.30134 31.5218 9.34583C31.5218 9.34583 31.2791 9.63998 31.0947 10.0518C31.2213 10.1204 31.4635 10.2397 31.4635 10.2397C31.9608 10.4767 32.6344 10.8926 33.2729 11.5804Z" fill="white"/>
<path d="M82.6 0H47.4C46.0745 0 45 1.07452 45 2.4V21.6C45 22.9255 46.0745 24 47.4 24H82.6C83.9255 24 85 22.9255 85 21.6V2.4C85 1.07452 83.9255 0 82.6 0Z" fill="#004481"/>
<path d="M71.6251 8.22069L69.0441 13.1343C68.9891 13.2394 68.8281 13.2394 68.7731 13.1343L66.1911 8.22069C66.1661 8.17065 66.1161 8.14062 66.0611 8.14062H64.8101C64.7251 8.14062 64.6701 8.2307 64.7101 8.30575L68.7781 15.9214C68.8331 16.0264 68.9841 16.0264 69.0441 15.9214L73.1121 8.30575C73.1521 8.2307 73.0971 8.14062 73.0111 8.14062H71.7611C71.7011 8.14062 71.6501 8.17065 71.6251 8.22069Z" fill="white"/>
<path d="M73.0911 14.7794L75.6731 9.86584C75.7281 9.76077 75.8881 9.76077 75.9431 9.86584L78.5251 14.7794C78.5501 14.8295 78.6001 14.8595 78.6551 14.8595H79.9061C79.9911 14.8595 80.0461 14.7694 80.0061 14.6944L75.9381 7.07881C75.8831 6.97373 75.7331 6.97373 75.6731 7.07881L71.6051 14.6944C71.5651 14.7694 71.6201 14.8595 71.7051 14.8595H72.9561C73.0111 14.8545 73.0661 14.8245 73.0911 14.7794Z" fill="white"/>
<path d="M55.4442 11.7634C55.9842 11.4932 56.3192 10.9077 56.3192 10.1922C56.3192 8.96635 55.3642 8.13574 54.0179 8.13574H50.1501C50.0651 8.13574 50 8.20079 50 8.28585V15.8464C50 15.9314 50.0651 15.9965 50.1501 15.9965H53.8528C55.7042 15.9965 56.6802 15.2009 56.6802 13.6397C56.6802 12.1186 55.4442 11.7634 55.4442 11.7634ZM51.4511 9.27657H53.7477C54.5934 9.27657 55.0237 9.63684 55.0237 10.3073C55.0237 10.9778 54.5934 11.3381 53.7477 11.3381H51.4511C51.371 11.3381 51.301 11.273 51.301 11.1879V9.42668C51.301 9.34162 51.366 9.27657 51.4511 9.27657ZM53.7778 14.8556H51.4511C51.366 14.8556 51.301 14.7906 51.301 14.7055V12.619C51.301 12.5389 51.366 12.4689 51.4511 12.4689H53.7778C54.8886 12.4689 55.3842 12.7841 55.3842 13.6598C55.3792 14.5454 54.8986 14.8556 53.7778 14.8556Z" fill="white"/>
<path d="M63.3845 11.7634C63.9255 11.4932 64.2605 10.9077 64.2605 10.1922C64.2605 8.96635 63.3045 8.13574 61.9585 8.13574H58.0855C58.0005 8.13574 57.9355 8.20079 57.9355 8.28585V15.8464C57.9355 15.9314 58.0005 15.9965 58.0855 15.9965H61.7885C63.6405 15.9965 64.6155 15.2009 64.6155 13.6397C64.6205 12.1186 63.3845 11.7634 63.3845 11.7634ZM59.3915 9.27657H61.6885C62.5345 9.27657 62.9645 9.63684 62.9645 10.3073C62.9645 10.9778 62.5345 11.3381 61.6885 11.3381H59.3915C59.3065 11.3381 59.2415 11.273 59.2415 11.1879V9.42668C59.2415 9.34162 59.3065 9.27657 59.3915 9.27657ZM61.7135 14.8556H59.3865C59.3065 14.8556 59.2365 14.7906 59.2365 14.7055V12.619C59.2365 12.5389 59.3015 12.4689 59.3865 12.4689H61.7135C62.8245 12.4689 63.3195 12.7841 63.3195 13.6598C63.3195 14.5454 62.8345 14.8556 61.7135 14.8556Z" fill="white"/>
</svg>
