<svg width="131" height="24" viewBox="0 0 131 24" fill="none" xmlns="http://www.w3.org/2000/svg">
<path d="M37.6 0H2.4C1.07452 0 0 1.07452 0 2.4V21.6C0 22.9255 1.07452 24 2.4 24H37.6C38.9255 24 40 22.9255 40 21.6V2.4C40 1.07452 38.9255 0 37.6 0Z" fill="#012D74"/>
<path fill-rule="evenodd" clip-rule="evenodd" d="M11.8614 14.2667L12.2819 12.4028H12.8617C13.6833 12.4028 14.3652 12.6296 14.3471 13.3821C14.3275 14.2312 13.4513 14.5768 12.4936 14.5768C12.3435 14.5768 12.2007 14.5768 12.0664 14.5726C11.8007 14.5492 11.8614 14.2667 11.8614 14.2667ZM16.2066 13.4237C16.2066 12.3044 15.4113 11.8158 14.7666 11.7685C15.5801 11.6338 16.6548 11.0396 16.6548 9.94612C16.6548 8.7783 15.4748 8.1543 13.694 8.1543C12.885 8.1543 12.0975 8.22252 11.3953 8.33487L10.1192 13.9582C10.1192 13.9582 9.678 15.4114 10.9322 15.7146C11.2842 15.7995 11.524 15.8311 11.9142 15.8527C15.2439 16.0356 16.2066 14.5499 16.2066 13.4237ZM12.9512 9.45998C13.087 9.43888 13.4098 9.41831 13.7172 9.41831C14.3897 9.41831 14.8632 9.65233 14.8496 10.1925C14.8328 10.8472 14.1637 11.2189 13.1976 11.2189H12.8221C12.5494 11.2189 12.6293 10.9088 12.6293 10.9088L12.9512 9.45998Z" fill="white"/>
<path fill-rule="evenodd" clip-rule="evenodd" d="M24.3481 15.8723C24.6185 15.8723 25.1287 15.7672 25.3028 14.9962C25.441 14.382 25.6734 13.3398 25.6734 13.3398C25.8548 13.3517 26.1061 13.3846 26.3982 13.3846C29.251 13.3846 30.2431 11.5636 30.2431 10.3259C30.2431 8.97526 29.2975 8.2004 27.2349 8.19231C26.3899 8.18528 25.6603 8.21675 24.9671 8.37587L23.291 15.8723H24.3481ZM26.6413 9.51428C26.7884 9.49283 27.0423 9.477 27.3807 9.477C28.0433 9.477 28.5937 9.67164 28.5937 10.463C28.5937 11.2674 27.9778 12.0444 26.7787 12.0535C26.6996 12.0535 26.6277 12.0516 26.5615 12.0488C26.0251 12.0488 26.1754 11.6045 26.1754 11.6045L26.6413 9.51428Z" fill="white"/>
<path fill-rule="evenodd" clip-rule="evenodd" d="M19.1074 12.5604C19.1074 11.3402 19.9046 9.51848 21.7306 9.51848C22.2072 9.51848 23.0644 9.64138 23.5565 10.0781C23.5565 10.0781 23.7411 9.45747 23.794 9.19919C23.8459 8.94688 23.7509 8.52596 22.9685 8.27523C22.4611 8.11259 22.0649 8.03418 21.5044 8.03418C18.6478 8.03418 17.168 10.3661 17.168 12.6604C17.168 15.1132 18.8194 15.9409 20.5118 15.9409C21.1193 15.9409 21.5202 15.8766 21.9001 15.7351C22.3678 15.5726 22.4462 15.1545 22.4462 15.1545L22.7285 13.8942C22.0084 14.4188 21.4745 14.5002 20.9859 14.5002C19.7991 14.5002 19.1074 13.7437 19.1074 12.5604Z" fill="white"/>
<path fill-rule="evenodd" clip-rule="evenodd" d="M9.2323 12.6762C8.5439 13.7686 6.66591 15.0138 6.13381 15.2005C5.09891 15.6308 4.39821 14.8329 4.33841 14.7492C4.14531 14.5022 4.09841 14.4499 4.00501 14.2697C3.98681 14.2996 5.9917 13.373 6.71 12.1742C7.4879 11.1446 7.55571 9.1249 6.70611 8.74512C6.96301 8.87365 7.5685 9.21897 8.1148 9.70266C8.6598 10.1618 9.1309 10.7638 9.1208 10.756C9.1783 10.8336 9.8611 11.6779 9.2323 12.6762Z" fill="#FF7800"/>
<path fill-rule="evenodd" clip-rule="evenodd" d="M7.04236 11.5804C7.48496 10.5089 7.41306 9.06029 6.70696 8.74468C6.06056 8.44332 5.32556 9.30134 5.29126 9.34583C5.29126 9.34583 5.04866 9.63998 4.86426 10.0518C4.99076 10.1204 5.23306 10.2397 5.23306 10.2397C5.73026 10.4767 6.40386 10.8926 7.04236 11.5804Z" fill="white"/>
<path fill-rule="evenodd" clip-rule="evenodd" d="M35.3532 10.756C35.4108 10.8336 36.0935 11.6779 35.4647 12.6762C34.7765 13.7686 32.8983 15.0138 32.3662 15.2005C31.3313 15.6308 30.6307 14.8329 30.5708 14.7492C30.3778 14.5022 30.3309 14.4499 30.2374 14.2697C30.2192 14.2996 32.2243 13.373 32.9424 12.1742C33.7204 11.1446 33.7881 9.1249 32.9385 8.74512C33.1955 8.87365 33.8009 9.21897 34.3472 9.70266C34.8922 10.1618 35.3635 10.7638 35.3532 10.756Z" fill="#FF7800"/>
<path fill-rule="evenodd" clip-rule="evenodd" d="M33.2729 11.5804C33.7155 10.5089 33.6436 9.06029 32.9375 8.74468C32.291 8.44332 31.5561 9.30134 31.5218 9.34583C31.5218 9.34583 31.2791 9.63998 31.0947 10.0518C31.2213 10.1204 31.4635 10.2397 31.4635 10.2397C31.9608 10.4767 32.6344 10.8926 33.2729 11.5804Z" fill="white"/>
<path d="M82.6 0H47.4C46.0745 0 45 1.07452 45 2.4V21.6C45 22.9255 46.0745 24 47.4 24H82.6C83.9255 24 85 22.9255 85 21.6V2.4C85 1.07452 83.9255 0 82.6 0Z" fill="#004481"/>
<path d="M71.6251 8.22069L69.0441 13.1343C68.9891 13.2394 68.8281 13.2394 68.7731 13.1343L66.1911 8.22069C66.1661 8.17065 66.1161 8.14062 66.0611 8.14062H64.8101C64.7251 8.14062 64.6701 8.2307 64.7101 8.30575L68.7781 15.9214C68.8331 16.0264 68.9841 16.0264 69.0441 15.9214L73.1121 8.30575C73.1521 8.2307 73.0971 8.14062 73.0111 8.14062H71.7611C71.7011 8.14062 71.6501 8.17065 71.6251 8.22069Z" fill="white"/>
<path d="M73.0911 14.7794L75.6731 9.86584C75.7281 9.76077 75.8881 9.76077 75.9431 9.86584L78.5251 14.7794C78.5501 14.8295 78.6001 14.8595 78.6551 14.8595H79.9061C79.9911 14.8595 80.0461 14.7694 80.0061 14.6944L75.9381 7.07881C75.8831 6.97373 75.7331 6.97373 75.6731 7.07881L71.6051 14.6944C71.5651 14.7694 71.6201 14.8595 71.7051 14.8595H72.9561C73.0111 14.8545 73.0661 14.8245 73.0911 14.7794Z" fill="white"/>
<path d="M55.4442 11.7634C55.9842 11.4932 56.3192 10.9077 56.3192 10.1922C56.3192 8.96635 55.3642 8.13574 54.0179 8.13574H50.1501C50.0651 8.13574 50 8.20079 50 8.28585V15.8464C50 15.9314 50.0651 15.9965 50.1501 15.9965H53.8528C55.7042 15.9965 56.6802 15.2009 56.6802 13.6397C56.6802 12.1186 55.4442 11.7634 55.4442 11.7634ZM51.4511 9.27657H53.7477C54.5934 9.27657 55.0237 9.63684 55.0237 10.3073C55.0237 10.9778 54.5934 11.3381 53.7477 11.3381H51.4511C51.371 11.3381 51.301 11.273 51.301 11.1879V9.42668C51.301 9.34162 51.366 9.27657 51.4511 9.27657ZM53.7778 14.8556H51.4511C51.366 14.8556 51.301 14.7906 51.301 14.7055V12.619C51.301 12.5389 51.366 12.4689 51.4511 12.4689H53.7778C54.8886 12.4689 55.3842 12.7841 55.3842 13.6598C55.3792 14.5454 54.8986 14.8556 53.7778 14.8556Z" fill="white"/>
<path d="M63.3845 11.7634C63.9255 11.4932 64.2605 10.9077 64.2605 10.1922C64.2605 8.96635 63.3045 8.13574 61.9585 8.13574H58.0855C58.0005 8.13574 57.9355 8.20079 57.9355 8.28585V15.8464C57.9355 15.9314 58.0005 15.9965 58.0855 15.9965H61.7885C63.6405 15.9965 64.6155 15.2009 64.6155 13.6397C64.6205 12.1186 63.3845 11.7634 63.3845 11.7634ZM59.3915 9.27657H61.6885C62.5345 9.27657 62.9645 9.63684 62.9645 10.3073C62.9645 10.9778 62.5345 11.3381 61.6885 11.3381H59.3915C59.3065 11.3381 59.2415 11.273 59.2415 11.1879V9.42668C59.2415 9.34162 59.3065 9.27657 59.3915 9.27657ZM61.7135 14.8556H59.3865C59.3065 14.8556 59.2365 14.7906 59.2365 14.7055V12.619C59.2365 12.5389 59.3015 12.4689 59.3865 12.4689H61.7135C62.8245 12.4689 63.3195 12.7841 63.3195 13.6598C63.3195 14.5454 62.8345 14.8556 61.7135 14.8556Z" fill="white"/>
<path d="M127.6 0H92.4C91.0745 0 90 1.07452 90 2.4V21.6C90 22.9255 91.0745 24 92.4 24H127.6C128.925 24 130 22.9255 130 21.6V2.4C130 1.07452 128.925 0 127.6 0Z" fill="#00A24F"/>
<path d="M109.632 10.8899C108.606 10.8899 107.885 11.6294 107.879 12.822C107.879 13.9133 108.75 14.5872 109.638 14.5872C110.169 14.5872 110.497 14.5037 110.688 14.3486V13.7463C110.413 13.8775 110.091 13.9252 109.811 13.9252C109.262 13.9252 108.821 13.6271 108.75 13.15L108.744 13.1083H109.382C109.984 13.1083 110.407 13.0546 110.676 12.9234C110.944 12.7922 111.057 12.5895 111.057 12.2674C111.057 11.4147 110.372 10.8899 109.632 10.8899ZM110.05 12.4583C109.883 12.5179 109.62 12.5418 109.185 12.5418H108.738V12.5L108.744 12.3808C108.761 11.9514 109.083 11.5697 109.549 11.5697C109.763 11.5697 109.942 11.6174 110.073 11.7129C110.205 11.8083 110.276 11.9633 110.276 12.1482C110.282 12.2913 110.217 12.3986 110.05 12.4583ZM111.499 12.2674V14.5275H112.339V12.4344C112.339 12.1541 112.393 11.9514 112.512 11.8142C112.626 11.6771 112.799 11.6234 113.007 11.6234C113.091 11.6234 113.168 11.6294 113.234 11.6413V10.9734C113.127 10.9197 112.989 10.884 112.811 10.884C111.868 10.8899 111.499 11.5578 111.499 12.2674ZM101.295 14.5275V9.97754H100.461V14.5275H101.295ZM103.556 10.8899C102.434 10.8899 101.951 11.6532 101.945 12.4046V14.5275H102.78V12.4642C102.78 12.2019 102.852 11.9872 102.971 11.8381C103.096 11.689 103.275 11.6115 103.478 11.6115C103.717 11.6115 103.913 11.683 104.05 11.8321C104.182 11.9872 104.253 12.2197 104.253 12.5298V14.5275H105.088V12.4523C105.088 11.4445 104.396 10.8899 103.556 10.8899ZM106.561 9.97754H105.732V13.2633C105.738 14.0982 106.156 14.5872 107.062 14.5931C107.45 14.5931 107.676 14.4679 107.772 14.2652V13.7463C107.622 13.8119 107.42 13.8418 107.169 13.8418C106.978 13.8418 106.823 13.7941 106.716 13.6808C106.609 13.5674 106.555 13.3945 106.555 13.15V11.6115H107.283C107.64 11.6115 107.789 11.3849 107.789 11.2179V10.884H106.561V9.97754ZM122.394 10.8899C121.272 10.8899 120.789 11.6532 120.783 12.4046L120.789 14.5275H121.618V12.4642C121.618 12.1959 121.69 11.9872 121.809 11.8381C121.934 11.689 122.113 11.6115 122.316 11.6115C122.555 11.6115 122.751 11.683 122.889 11.8381C123.026 11.9931 123.091 12.2197 123.091 12.5298V14.5275H123.92V12.4523C123.926 11.4445 123.24 10.8899 122.394 10.8899ZM115.446 10.8899C114.975 10.8899 114.683 11.1702 114.51 11.4266L114.444 11.522V9.97754H113.616V12.7982C113.616 13.9968 114.337 14.5931 115.273 14.5931C116.341 14.5931 117.015 13.7523 117.015 12.6789C117.015 11.6234 116.335 10.8899 115.446 10.8899ZM115.369 13.8835C115.094 13.8835 114.85 13.806 114.689 13.6032C114.528 13.4064 114.45 13.0904 114.45 12.667C114.45 12.0885 114.802 11.6174 115.279 11.6115C115.56 11.6115 115.786 11.689 115.941 11.8858C116.096 12.0826 116.174 12.3808 116.174 12.828C116.168 13.4303 115.84 13.8835 115.369 13.8835ZM118.726 10.8899C118.219 10.8899 117.885 11.0271 117.653 11.206V11.7904C117.891 11.6771 118.183 11.5876 118.589 11.5876C118.863 11.5876 119.102 11.6294 119.239 11.7367C119.382 11.85 119.442 12.0289 119.442 12.2913V12.3748H119.084C117.748 12.3808 117.307 12.8519 117.307 13.478C117.307 14.122 117.879 14.5931 118.732 14.5931H118.917C119.71 14.5931 120.259 14.0803 120.259 13.3289V12.4941C120.265 11.2239 119.531 10.8959 118.726 10.8899ZM119.454 13.3349C119.454 13.5257 119.406 13.6748 119.299 13.7821C119.191 13.8835 119.036 13.9312 118.833 13.9312C118.631 13.9312 118.464 13.8895 118.344 13.806C118.225 13.7225 118.166 13.5973 118.166 13.4422C118.166 13.2872 118.219 13.15 118.368 13.0665C118.511 12.983 118.744 12.9473 119.09 12.9473H119.454V13.3349Z" fill="white"/>
<path d="M126.305 12.6431L126.287 12.6193L126.305 12.5954C126.669 12.1363 127.462 11.2418 127.754 10.9734H127.295C127.003 10.9734 126.806 11.0032 126.597 11.2C126.18 11.5936 125.834 12.0587 125.482 12.5119L125.417 12.6014L125.422 9.97754H124.582V14.5216H125.422V12.6789L125.488 12.7684C125.888 13.2991 126.293 13.8358 126.758 14.3129C126.907 14.456 127.134 14.5514 127.331 14.5514C127.563 14.5514 127.694 14.4918 127.784 14.3844C127.545 14.1041 126.591 12.989 126.305 12.6431Z" fill="white"/>
<path fill-rule="evenodd" clip-rule="evenodd" d="M92.863 9C92.386 9 91.999 9.39358 91.999 9.87064V15.5H97.634C98.111 15.5 98.505 15.1124 98.505 14.6294V9H92.863ZM96.984 13.6931L93.519 14.3193V10.8248L96.984 10.1986V13.6931Z" fill="#0060A9"/>
</svg>
