<svg width="40" height="24" viewBox="0 0 40 24" fill="none" xmlns="http://www.w3.org/2000/svg">
<path d="M38 0H2C0.89543 0 0 0.89543 0 2V22C0 23.1046 0.89543 24 2 24H38C39.1046 24 40 23.1046 40 22V2C40 0.89543 39.1046 0 38 0Z" fill="#6B2C80"/>
<path d="M32.8462 11.4129C31.6406 11.5026 30.4343 11.5984 29.2302 11.7116C28.4909 11.7808 27.7547 11.8857 26.9822 11.9792C27.0634 11.4471 27.1369 10.9537 27.2196 10.4231C27.3232 10.4991 27.3743 10.5333 27.4292 10.5698C28.1723 11.0868 28.883 11.0191 29.4877 10.3562C29.9517 9.84537 30.2046 9.21593 30.3995 8.57358C30.7088 7.54807 30.9207 6.51118 30.6315 5.44236C30.3809 4.51263 29.4599 4.27315 28.7492 4.95277C28.6069 5.08809 28.4616 5.2196 28.3378 5.33286C28.3061 5.2234 28.3084 5.06757 28.2303 4.99154C28.1559 4.91551 28.0617 4.86093 27.9579 4.83377C27.8542 4.80661 27.7449 4.80791 27.6418 4.83754C27.5388 4.86716 27.446 4.92395 27.3735 5.00175C27.3009 5.07955 27.2515 5.17543 27.2304 5.27892C26.9675 6.5834 26.7177 7.89093 26.4432 9.19238C26.4092 9.35352 26.2746 9.51012 26.1493 9.63099C26.0666 9.70702 25.9174 9.7207 25.7959 9.76173C25.7526 9.63402 25.6606 9.50101 25.6753 9.38164C25.7294 8.92021 25.8044 8.46105 25.8965 8.00496C26.0558 7.20978 26.2391 6.4192 26.4007 5.62478C26.4595 5.33667 26.3388 5.15424 26.0295 5.07975C25.5918 4.97482 25.5137 5.00371 25.2314 5.50391C24.4674 5.06223 23.9168 5.1375 23.2896 5.77454C22.7576 6.31504 22.432 6.97564 22.1791 7.67501C21.8304 8.63667 21.6448 9.61731 21.8884 10.636C21.9959 11.086 22.2402 11.419 22.7181 11.5565C23.2301 11.704 23.6554 11.5634 24.0073 11.1962C24.16 11.0188 24.3022 10.8331 24.4334 10.6398C24.5339 10.9993 24.7504 11.2829 25.1293 11.2601C25.4595 11.2396 25.7805 11.0845 26.1122 10.9872C26.0429 11.2647 25.9882 11.5456 25.9483 11.8287C25.9235 12.0872 25.7936 12.1617 25.5547 12.1974C24.2068 12.3973 22.8604 12.6124 21.5133 12.8253C21.0865 12.893 20.6627 12.9705 20.1848 13.0534C20.3804 12.3692 20.5598 11.7458 20.7361 11.1217C21.2164 9.42421 21.7005 7.72749 22.1683 6.02846C22.2905 5.58451 22.1018 5.4104 21.6479 5.51686C21.1127 5.64303 20.781 5.97675 20.5954 6.49216C20.225 7.52071 19.8453 8.54469 19.4246 9.55726C19.3055 9.84307 19.0557 10.0894 18.8176 10.3076C18.707 10.4072 18.4309 10.4596 18.3203 10.3935C18.2097 10.3273 18.1362 10.0803 18.1494 9.92064C18.187 9.60964 18.2527 9.30257 18.3458 9.00308C18.5167 8.37744 18.7255 7.76015 18.8732 7.12921C18.9691 6.71719 18.6242 6.39031 18.1401 6.36902C17.8246 6.35381 17.7357 6.50434 17.7117 6.98782C17.696 7.22352 17.6505 7.45642 17.5764 7.68111C17.4705 8.02167 17.3088 8.34702 17.216 8.69065C17.042 9.3368 16.8642 9.98676 16.752 10.6459C16.6747 11.1293 16.7799 11.6143 17.2477 11.9032C17.7156 12.1921 18.1811 12.0727 18.5995 11.7679C18.8315 11.5968 19.0472 11.3977 19.3094 11.1788C19.0635 11.9177 18.8392 12.6163 18.5925 13.3073C18.5569 13.4076 18.4216 13.489 18.3141 13.5467C17.7179 13.8683 17.0838 14.1336 16.5224 14.5053C15.2549 15.3416 14.3679 16.475 14.0524 17.9802C13.9132 18.6431 14.0369 19.2436 14.5984 19.6784C15.1783 20.1292 15.8117 20.0585 16.4342 19.7583C17.0366 19.4717 17.4635 18.9889 17.8625 18.4796C18.6753 17.442 19.1454 16.2416 19.5514 15.0146C19.6288 14.7775 19.7471 14.6612 19.9914 14.6133C21.3834 14.3404 22.7707 14.0523 24.1619 13.7771C24.6205 13.6866 25.0853 13.625 25.5725 13.5452C25.5802 13.7071 25.5554 13.8273 25.5972 13.9162C25.6745 14.0811 25.7635 14.3115 25.9027 14.3594C26.0418 14.4073 26.2893 14.3077 26.413 14.1921C26.5546 14.0417 26.651 13.8557 26.6914 13.6547C26.7394 13.4456 26.8422 13.3711 27.0402 13.346C28.3058 13.1874 29.5715 13.0255 30.8372 12.8603C31.5888 12.7614 32.3436 12.6748 33.0891 12.5425C33.4757 12.4741 33.5956 12.1426 33.444 11.7892C33.4029 11.6688 33.3213 11.5659 33.2126 11.4975C33.1038 11.429 32.9746 11.3992 32.8462 11.4129ZM27.597 9.371C27.829 8.51807 28.0439 7.65906 28.3223 6.82058C28.419 6.52943 28.6502 6.26106 28.876 6.03607C29.1421 5.76997 29.4096 5.86349 29.5032 6.22306C29.5384 6.38477 29.5629 6.54857 29.5766 6.71338C29.5365 7.52118 29.3233 8.31152 28.951 9.03271C28.7461 9.44473 28.4376 9.77088 27.9009 9.72527C27.6813 9.70702 27.5266 9.61504 27.597 9.371ZM25.0358 6.75368C24.7489 7.70313 24.4349 8.64351 24.1201 9.58462C24.0717 9.70535 23.9982 9.81485 23.9044 9.90619C23.6724 10.1494 23.3376 10.1198 23.1984 9.82105C23.0862 9.58235 23.0437 9.31095 22.995 9.12849C23.1226 8.18054 23.3151 7.3527 23.9926 6.7339C24.1725 6.5776 24.3812 6.45656 24.6074 6.37736C24.8765 6.27551 25.1154 6.47771 25.0319 6.75368H25.0358ZM16.4419 18.0896C16.2855 18.2696 16.1007 18.4236 15.8944 18.5457C15.7699 18.6218 15.531 18.6613 15.4451 18.5929C15.3865 18.5341 15.3428 18.4626 15.3174 18.3842C15.292 18.3058 15.2857 18.2226 15.299 18.1413C15.3795 17.8169 15.5044 17.5046 15.6702 17.2131C16.213 16.2842 17.0026 15.6 18.0852 15.1165C17.6545 16.2462 17.1789 17.2397 16.4419 18.0896ZM32.1456 8.21627C32.1858 8.01787 32.2864 7.92893 32.5098 7.88332C33.1277 7.75478 33.6925 7.44775 34.1318 7.00163C34.571 6.55548 34.8647 5.99053 34.9751 5.37924C35.1151 4.59853 34.6535 4.03522 33.8477 4.00255C33.6383 3.99061 33.4287 4.02064 33.2316 4.09083C33.0344 4.16099 32.8539 4.26985 32.7008 4.41077C31.4287 5.5655 30.9284 7.05091 30.797 8.68608C30.8263 8.95974 30.841 9.2182 30.8851 9.47439C31.0398 10.3623 31.742 10.8116 32.6258 10.5903C33.3783 10.4018 33.9637 9.9571 34.4888 9.4151C34.8391 9.05249 34.8801 8.88298 34.6767 8.43523C34.5065 8.05967 34.3495 8.0551 34.0495 8.34779C33.7637 8.6293 33.4531 8.88545 33.1215 9.11331C32.8779 9.27825 32.5663 9.39155 32.2902 9.18174C32.0141 8.97192 32.0745 8.64124 32.11 8.34018C32.1116 8.29761 32.1371 8.25808 32.1456 8.21627ZM33.2205 5.39672C33.3342 5.22264 33.5577 5.05539 33.7417 5.20746C33.8508 5.2979 33.8763 5.59362 33.8191 5.75249C33.6002 6.33025 33.1231 6.62824 32.547 6.79625L32.4279 6.71111C32.6885 6.2717 32.9398 5.82549 33.2205 5.39672Z" fill="white"/>
<path d="M8.99823 8C8.21931 7.99994 7.4573 8.21117 6.80589 8.60773C6.15449 9.00429 5.64202 9.56892 5.33147 10.2322C5.02093 10.8955 4.92582 11.6286 5.05785 12.3414C5.18986 13.0542 5.54327 13.7157 6.07461 14.2445L5.98171 15.8182C5.97985 15.8503 5.98771 15.8824 6.00443 15.9106C6.02111 15.9388 6.04601 15.9621 6.07624 15.9779C6.1065 15.9937 6.14089 16.0013 6.17557 15.9998C6.21023 15.9984 6.24374 15.988 6.27234 15.9698L7.5331 15.1688C8.08043 15.3694 8.66867 15.4554 9.25589 15.4206C9.84315 15.3859 10.4149 15.2312 10.9303 14.9676C11.4457 14.704 11.8922 14.3381 12.2378 13.8959C12.5833 13.4537 12.8195 12.9461 12.9295 12.4093C13.0395 11.8725 13.0206 11.3199 12.874 10.7907C12.7275 10.2615 12.457 9.76893 12.0818 9.348C11.7067 8.92709 11.236 8.58826 10.7036 8.35567C10.1711 8.12308 9.58997 8.00248 9.00155 8.00246L8.99823 8ZM9.28953 13.1885C9.19148 13.3466 9.04631 13.475 8.8715 13.5582C8.67718 13.645 8.46328 13.6873 8.24776 13.6814C7.87018 13.6814 7.56429 13.5767 7.33735 13.3696C7.11041 13.1626 6.99166 12.8811 6.98301 12.5317C6.98097 12.4836 6.99879 12.4367 7.03278 12.4005C7.05764 12.3762 7.08778 12.3572 7.12119 12.3447C7.15462 12.3321 7.19052 12.3264 7.22655 12.3278C7.26697 12.3236 7.30791 12.3269 7.34696 12.3375C7.38601 12.3481 7.42244 12.3657 7.45413 12.3894C7.48456 12.4171 7.50235 12.4546 7.50389 12.4941C7.51263 12.623 7.55279 12.7484 7.62137 12.8607C7.68663 12.9509 7.77664 13.0232 7.88214 13.0702C8.00419 13.1254 8.13855 13.153 8.27429 13.1509C8.48067 13.1509 8.64124 13.1065 8.75205 13.0191C8.80449 12.9783 8.84625 12.927 8.87406 12.869C8.9019 12.8111 8.91509 12.7479 8.91262 12.6845C8.91495 12.6119 8.89517 12.5401 8.85557 12.4775C8.81253 12.4152 8.75193 12.3652 8.68038 12.3327C8.49182 12.2572 8.29726 12.1954 8.09846 12.1478C7.88547 12.0995 7.6815 12.0218 7.49329 11.9174C7.36944 11.8388 7.26845 11.733 7.19935 11.6093C7.12765 11.4798 7.09142 11.336 7.09384 11.1904C7.08944 11.0629 7.11399 10.9361 7.16589 10.818C7.21778 10.6999 7.29588 10.5934 7.39507 10.5052C7.59414 10.3296 7.8629 10.2403 8.19467 10.2403C8.40143 10.237 8.60606 10.2792 8.79185 10.3635C8.96256 10.4436 9.10438 10.5683 9.19995 10.7221C9.29844 10.8876 9.35112 11.0733 9.35322 11.2625C9.3547 11.3145 9.33478 11.3652 9.29748 11.4042C9.27398 11.4269 9.24561 11.4449 9.21419 11.4569C9.18274 11.4689 9.14896 11.4746 9.11501 11.4738C9.07415 11.4784 9.03268 11.4754 8.99311 11.4648C8.95356 11.4542 8.9167 11.4363 8.88475 11.4122C8.84989 11.383 8.82869 11.3423 8.82569 11.2988C8.80845 11.114 8.74806 10.9784 8.64654 10.8915C8.54502 10.8046 8.39572 10.7615 8.20396 10.7615C8.0122 10.7615 7.85824 10.8003 7.76071 10.8755C7.71493 10.909 7.67827 10.9519 7.6536 11.001C7.62894 11.05 7.617 11.1036 7.61869 11.1577C7.61499 11.203 7.62189 11.2485 7.63896 11.291C7.65605 11.3336 7.68284 11.3722 7.71755 11.4042C7.76799 11.4467 7.90069 11.5163 8.2484 11.6019C8.45862 11.6492 8.66419 11.7129 8.86285 11.7923C9.03816 11.8688 9.18723 11.9889 9.29352 12.1392C9.39472 12.2936 9.44585 12.4718 9.44081 12.6525C9.44358 12.8406 9.39131 13.0258 9.28953 13.1885ZM11.6697 10.7985L10.1236 13.4097C10.0879 13.4701 10.0278 13.515 9.95646 13.5343C9.88514 13.5536 9.80852 13.5457 9.74341 13.5126C9.67829 13.4794 9.63001 13.4236 9.60925 13.3574C9.58846 13.2912 9.59687 13.22 9.63257 13.1595L11.1793 10.5477C11.2153 10.4875 11.2755 10.4429 11.3467 10.4238C11.4179 10.4046 11.4945 10.4124 11.5595 10.4454C11.6244 10.4788 11.6724 10.5347 11.6931 10.6009C11.7137 10.667 11.7053 10.7381 11.6697 10.7985Z" fill="#01D0B5"/>
</svg>
